<svg width="1047" height="1517" viewBox="0 0 1047 1517" fill="none" xmlns="http://www.w3.org/2000/svg">
<mask id="path-1-inside-1_5_32" fill="white">
<path d="M851.321 783.758C860.433 796.688 857.383 814.643 843.889 822.896C789.923 855.901 729.379 876.959 666.347 884.501C593.817 893.18 520.268 883.691 452.316 856.887C384.364 830.084 324.142 786.807 277.068 730.951C229.994 675.095 197.545 608.412 182.641 536.902C167.736 465.392 170.844 391.298 191.684 321.287C212.524 251.276 250.443 187.544 302.028 135.826C353.614 84.1083 417.249 46.0264 487.206 25.007C548.003 6.73999 611.918 1.85774 674.576 10.555C690.243 12.7297 700.213 27.9715 697.025 43.4648V43.4648C693.837 58.958 678.698 68.8209 663.01 66.7984C609.681 59.9233 555.389 64.3318 503.689 79.8657C442.826 98.1525 387.464 131.284 342.584 176.278C297.705 221.273 264.715 276.72 246.584 337.629C228.453 398.539 225.75 463.001 238.717 525.215C251.684 587.428 279.915 645.443 320.869 694.037C361.823 742.632 414.217 780.283 473.335 803.601C532.453 826.92 596.441 835.176 659.541 827.626C713.143 821.212 764.675 803.564 810.817 775.956C824.391 767.835 842.21 770.829 851.321 783.758V783.758Z"/>
</mask>
<path d="M851.321 783.758C860.433 796.688 857.383 814.643 843.889 822.896C789.923 855.901 729.379 876.959 666.347 884.501C593.817 893.18 520.268 883.691 452.316 856.887C384.364 830.084 324.142 786.807 277.068 730.951C229.994 675.095 197.545 608.412 182.641 536.902C167.736 465.392 170.844 391.298 191.684 321.287C212.524 251.276 250.443 187.544 302.028 135.826C353.614 84.1083 417.249 46.0264 487.206 25.007C548.003 6.73999 611.918 1.85774 674.576 10.555C690.243 12.7297 700.213 27.9715 697.025 43.4648V43.4648C693.837 58.958 678.698 68.8209 663.01 66.7984C609.681 59.9233 555.389 64.3318 503.689 79.8657C442.826 98.1525 387.464 131.284 342.584 176.278C297.705 221.273 264.715 276.72 246.584 337.629C228.453 398.539 225.75 463.001 238.717 525.215C251.684 587.428 279.915 645.443 320.869 694.037C361.823 742.632 414.217 780.283 473.335 803.601C532.453 826.92 596.441 835.176 659.541 827.626C713.143 821.212 764.675 803.564 810.817 775.956C824.391 767.835 842.21 770.829 851.321 783.758V783.758Z" stroke="#4FCF00" stroke-opacity="0.35" stroke-width="4" stroke-linecap="round" mask="url(#path-1-inside-1_5_32)"/>
<path d="M1034.41 1277.64C980.567 1310.57 920.161 1331.58 857.271 1339.1C784.906 1347.76 711.524 1338.29 643.726 1311.55C575.929 1284.81 515.843 1241.63 468.876 1185.9C421.909 1130.17 389.534 1063.64 374.663 992.294C359.792 920.946 362.892 847.02 383.685 777.168C404.478 707.316 442.311 643.729 493.78 592.128C545.248 540.527 608.738 502.532 678.537 481.56C739.196 463.334 802.966 458.463 865.481 467.141C880.534 469.23 890.169 483.888 887.089 498.859C884.016 513.794 869.397 523.364 854.181 521.402C800.713 514.509 746.279 518.929 694.444 534.503C633.422 552.838 577.916 586.055 532.919 631.168C487.923 676.28 454.847 731.871 436.669 792.939C418.491 854.008 415.78 918.638 428.781 981.014C441.782 1043.39 470.086 1101.56 511.147 1150.28C552.209 1199 604.739 1236.75 664.011 1260.13C723.283 1283.51 787.438 1291.78 850.703 1284.21C904.444 1277.78 956.111 1260.09 1002.37 1232.41C1015.54 1224.53 1032.76 1227.47 1041.55 1239.93C1050.35 1252.42 1047.37 1269.71 1034.41 1277.64Z" stroke="#4FCF00" stroke-opacity="0.35" stroke-width="2" stroke-linecap="round"/>
</svg>
